# AST/ASF file generated using VICON BodyLanguage
# -----------------------------------------------
:version 1.10
:name VICON
:units
  mass 1.0
  length 0.45
  angle deg
:documentation
   .ast/.asf automatically generated from VICON data using
   VICON BodyBuilder and BodyLanguage model FoxedUp or BRILLIANT.MOD
:root
   order TX TY TZ RX RY RZ
   axis XYZ
   position 0 0 0  
   orientation 0 0 0 
:bonedata
  begin
     id 1 
     name lhipjoint
     direction 0.707368 -0.647095 0.284426 
     length 2.60678 
     axis 0 0 0  XYZ
  end
  begin
     id 2 
     name lfemur
     direction 0.34202 -0.939693 0  
     length 6.63812  
     axis 0 0 20  XYZ
    dof rx ry rz
    limits (-160.0 20.0)
           (-70.0 70.0)
           (-60.0 70.0)
  end
  begin
     id 3 
     name ltibia
     direction 0.34202 -0.939693 0   
     length 7.51178   
     axis 0 0 20   XYZ
    dof rx
    limits (-10.0 170.0)
  end
  begin
     id 4 
     name lfoot
     direction 0.121251 -0.333133 0.935051   
     length 1.83716   
     axis -90 7.62852e-016 20   XYZ
    dof rx rz
    limits (-45.0 90.0)
           (-70.0 20.0)
  end
  begin
     id 5 
     name ltoes
     direction 1.53611e-011 -4.21962e-011 1   
     length 0.916133   
     axis -90 7.62852e-016 20   XYZ
    dof rx
    limits (-90.0 20.0)
  end
  begin
     id 6 
     name rhipjoint
     direction -0.692419 -0.660507 0.290321   
     length 2.55385  
     axis 0 0 0  XYZ 
  end
  begin
     id 7 
     name rfemur
     direction -0.34202 -0.939693 0   
     length 7.29079   
     axis 0 0 -20   XYZ
    dof rx ry rz
    limits (-160.0 20.0)
           (-70.0 70.0)
           (-70.0 60.0)
  end
  begin
     id 8 
     name rtibia
     direction -0.34202 -0.939693 0   
     length 7.47143   
     axis 0 0 -20   XYZ
    dof rx
    limits (-10.0 170.0)
 end
 begin
     id 9 
     name rfoot
     direction -0.119907 -0.329441 0.936532   
     length 1.79439  
     axis -90 -7.62852e-016 -20   XYZ
    dof rx rz
    limits (-45.0 90.0)
           (-20.0 70.0)
  end
  begin
     id 10 
     name rtoes
     direction -1.53571e-011 -4.21961e-011 1   
     length 0.896039   
     axis -90 -7.62852e-016 -20   XYZ
    dof rx
    limits (-90.0 20.0)
  end
  begin
     id 11 
     name lowerback
     direction 0.0367721 0.992912 -0.113016   
     length 1.73542   
     axis 0 0 0   XYZ
    dof rx ry rz
    limits (-20.0 45.0)
           (-30.0 30.0)
           (-30.0 30.0)
  end
  begin
     id 12 
     name upperback
     direction -0.000314626 0.990678 0.136227   
     length 1.7514   
     axis 0 0 0   XYZ
    dof rx ry rz
    limits (-20.0 45.0)
           (-30.0 30.0)
           (-30.0 30.0)
  end
  begin
     id 13 
     name thorax
     direction -0.0226159 0.981151 0.191917   
     length 1.71471   
     axis 0 0 0   XYZ
    dof rx ry rz
    limits (-20.0 45.0)
           (-30.0 30.0)
           (-30.0 30.0)
  end
  begin
     id 14 
     name lowerneck
     direction 0.0219333 0.998071 0.0580739   
     length 1.65882   
     axis 0 0 0   XYZ
    dof rx ry rz
    limits (-20.0 45.0)
           (-30.0 30.0)
           (-30.0 30.0)
  end
  begin
     id 15 
     name upperneck
     direction 0.0384529 0.980058 -0.194957   
     length 1.6612   
     axis 0 0 0   XYZ
    dof rx ry rz
    limits (-20.0 45.0)
           (-30.0 30.0)
           (-30.0 30.0)
  end
  begin
     id 16
     name head
     direction 0.00592123 0.997421 -0.0715234  
     length 1.68077  
     axis 0 0 0   XYZ
    dof rx ry rz
    limits (-20.0 45.0)
           (-30.0 30.0)
           (-30.0 30.0)
  end
  begin
     id 17 
     name lclavicle
     direction 0.904803 0.417826 0.0821728  
     length 3.42227  
     axis 0 0 0   XYZ
    dof ry rz
    limits (-20.0 10.0)
           (0.0 20.0)
  end
  begin
     id 18 
     name lhumerus
     direction 1 -4.48965e-011 -2.68786e-027   
     length 5.11878   
     axis -180 -30 -90   XYZ
    dof rx ry rz
    limits (-60.0 90.0)
           (-90.0 90.0)
           (-90.0 90.0)
  end
  begin
     id 19
     name lradius
     direction 1 -4.48965e-011 2.61168e-028   
     length 3.59971   
     axis -180 -30 -90   XYZ
    dof rx
    limits (-10.0 170.0)
  end
  begin
     id 20
     name lwrist
     direction 1 -4.48965e-011 1.58672e-027   
     length 1.79985   
     axis -1.65735e-015 90 90   XYZ
    dof ry
    limits (-180.0 0.0)
 end
  begin
     id 21 
     name lhand
     direction 1 -4.48942e-011 3.17344e-027   
     length 0.62877   
     axis -2.02492e-015 90 90   XYZ
    dof rx rz
    limits (-90.0 90.0)
           (-45.0 45.0)
  end
  begin
     id 22 
     name lfingers
     direction 1 -4.49011e-011 6.34687e-027   
     length 0.506931   
     axis -4.04985e-015 90 90   XYZ
    dof rx
    limits (0.0 90.0)
  end
  begin
     id 23
     name lthumb
     direction 0.707107 -6.34982e-011 0.707107   
     length 0.727854   
     axis -90 45 2.85299e-015   XYZ
    dof rx rz
    limits (-45.0 45.0)
           (-45.0 45.0)
  end
  begin
     id 24 
     name rclavicle
     direction -0.945647 0.32488 0.0143075   
     length 3.52737  
     axis 0 0 0   XYZ 
    dof ry rz
    limits (-10.0 20.0)
           (-20.0 0.0)
  end
  begin
     id 25 
     name rhumerus
     direction -1 -4.48962e-011 1.92182e-027  
     length 5.4902   
     axis -180 30 90   XYZ
    dof rx ry rz
    limits (-90.0 60.0)
           (-90.0 90.0)
           (-90.0 90.0)
  end
  begin
     id 26 
     name rradius
     direction -1 -4.48967e-011 -5.97193e-028   
     length 3.20659   
     axis -180 30 90   XYZ
    dof rx
    limits (-10.0 170.0)
  end
  begin
     id 27 
     name rwrist
     direction -1 -4.48964e-011 1.58672e-027   
     length 1.6033   
     axis -1.65735e-015 -90 -90   XYZ
    dof ry
    limits (-180.0 0.0)
  end
  begin
     id 28
     name rhand
     direction -1 -4.49006e-011 3.17344e-027   
     length 0.691885   
     axis -2.02492e-015 -90 -90   XYZ
    dof rx rz
    limits (-90.0 90.0)
           (-45.0 45.0)
  end
  begin
     id 29
     name rfingers
     direction -1 -4.48908e-011 6.34687e-027   
     length 0.557815   
     axis -4.04985e-015 -90 -90   XYZ
    dof rx
    limits (0.0 90.0)
  end
  begin
     id 30
     name rthumb
     direction -0.707107 -6.34999e-011 0.707107   
     length 0.800915   
     axis -90 -45 -2.85299e-015   XYZ
    dof rx rz
    limits (-45.0 45.0)
           (-45.0 45.0)
  end
:hierarchy
  begin
    root lhipjoint rhipjoint lowerback
    lhipjoint lfemur
    lfemur ltibia
    ltibia lfoot
    lfoot ltoes
    rhipjoint rfemur
    rfemur rtibia
    rtibia rfoot
    rfoot rtoes
    lowerback upperback
    upperback thorax
    thorax lowerneck lclavicle rclavicle
    lowerneck upperneck
    upperneck head
    lclavicle lhumerus
    lhumerus lradius
    lradius lwrist
    lwrist lhand lthumb
    lhand lfingers
    rclavicle rhumerus
    rhumerus rradius
    rradius rwrist
    rwrist rhand rthumb
    rhand rfingers
  end

#!OML:ASF I:\Actors\actors\Patient Classification 1\Patient 1\Session 1\Subject1.ASF
:FULLY-SPECIFIED
:DEGREES
35
root -0.47792 17.5006 7.6657 7.12947 0.794402 -8.41018
lowerback 2.48888 -0.439349 5.42936
upperback -8.44686 0.00830587 1.99415
thorax -10.4125 -0.342056 -0.899637
lowerneck -1.93507 -12.9553 -12.9844
upperneck 17.4919 -19.3518 12.9371
head 8.27329 -9.30986 4.49505
rclavicle -1.86361e-014 4.33351e-014
rhumerus -43.3926 -11.5146 -80.7989
rradius 27.5447
rwrist 23.9868
rhand -5.47889 -35.465
rfingers 7.12502
rthumb 20.3332 -64.4206
lclavicle -1.86361e-014 4.33351e-014
lhumerus -53.4315 38.3373 54.6598
lradius 23.936
lwrist -24.7123
lhand -12.9865 -10.6721
lfingers 7.12502
lthumb 13.1062 18.8961
rfemur -0.997762 24.748 27.3296
rtibia 2.3096
rfoot -11.5487 -24.7337
rtoes 3.00321
lfemur 6.8046 -40.4643 -14.5642
ltibia -4.53556
lfoot -15.7996 48.8412
ltoes 7.74635
36
root -0.479931 17.5003 7.66402 7.11754 0.783728 -8.3793
lowerback 2.58281 -0.441643 5.39249
upperback -8.43388 0.00933221 2.00077
thorax -10.4538 -0.338805 -0.871605
lowerneck -2.0702 -12.9728 -12.9872
upperneck 17.5574 -19.3688 12.9251
head 8.32082 -9.31057 4.47861
rclavicle -1.99779e-014 5.80451e-014
rhumerus -43.4854 -11.3988 -80.8271
rradius 27.63
rwrist 24.0838
rhand -5.87527 -35.3461
rfingers 7.12502
rthumb 19.9523 -64.3418
lclavicle -1.99779e-014 5.80451e-014
lhumerus -53.4056 38.254 54.7965
lradius 23.9337
lwrist -24.577
lhand -13.2287 -10.7542
lfingers 7.12502
lthumb 12.8727 18.8288
rfemur -0.989832 24.7418 27.2996
rtibia 2.31221
rfoot -11.6145 -24.7227
rtoes 3.11781
lfemur 6.82658 -40.4878 -14.6089
ltibia -4.53789
lfoot -15.866 48.8661
ltoes 7.77056
37
root -0.481973 17.5014 7.66358 7.09077 0.767632 -8.34549
lowerback 2.66041 -0.443786 5.35122
upperback -8.42152 0.00798605 1.99679
thorax -10.486 -0.336716 -0.852326
lowerneck -2.09744 -12.9681 -12.9828
upperneck 17.5561 -19.3617 12.9364
head 8.32494 -9.30475 4.48079
rclavicle 4.47266e-015 -8.74653e-015
rhumerus -43.5552 -11.2557 -80.8891
rradius 27.6507
rwrist 24.2015
rhand -6.20013 -35.2208
rfingers 7.12502
rthumb 19.64 -64.2487
lclavicle 4.47266e-015 -8.74653e-015
lhumerus -53.4628 38.273 54.7678
lradius 23.8993
lwrist -24.6851
lhand -13.505 -10.8451
lfingers 7.12502
lthumb 12.6064 18.7545
rfemur -0.935952 24.7568 27.2825
rtibia 2.26895
rfoot -11.6334 -24.7242
rtoes 3.40237
lfemur 6.8553 -40.3815 -14.6419
ltibia -4.57006
lfoot -15.697 48.8039
ltoes 7.5418
38
root -0.483755 17.5031 7.66389 7.07819 0.751288 -8.32066
lowerback 2.70616 -0.458086 5.31224
upperback -8.40917 -0.0114397 2.00036
thorax -10.5001 -0.342901 -0.824366
lowerneck -2.2137 -12.9681 -12.956
upperneck 17.6453 -19.3531 12.8845
head 8.36604 -9.29502 4.45226
rclavicle 9.98893e-015 -1.07344e-014
rhumerus -43.5777 -11.1267 -80.9448
rradius 27.6055
rwrist 24.3585
rhand -6.53697 -35.0662
rfingers 7.12502
rthumb 19.3161 -64.1269
lclavicle 9.98893e-015 -1.07344e-014
lhumerus -53.6007 38.4829 54.5554
lradius 23.8431
lwrist -25.0133
lhand -13.6989 -10.8296
lfingers 7.12502
lthumb 12.4194 18.7814
rfemur -0.898933 24.7681 27.2704
rtibia 2.2278
rfoot -11.5866 -24.7439
rtoes 3.37135
lfemur 6.91582 -40.4953 -14.7257
ltibia -4.55956
lfoot -15.813 48.9196
ltoes 7.72379
39
root -0.484459 17.5047 7.66438 7.07762 0.729125 -8.32795
lowerback 2.7311 -0.462714 5.31401
upperback -8.39884 -0.0154938 2.00897
thorax -10.5038 -0.344532 -0.815611
lowerneck -2.36065 -12.9756 -12.9026
upperneck 17.7245 -19.3515 12.8275
head 8.40698 -9.28597 4.41513
rclavicle 1.20265e-014 -7.95139e-016
rhumerus -43.5728 -11.0843 -80.9462
rradius 27.5088
rwrist 24.5978
rhand -6.76593 -34.8739
rfingers 7.12502
rthumb 19.0959 -63.9564
lclavicle 1.20265e-014 -7.95139e-016
lhumerus -54.1508 39.5535 53.3593
lradius 23.3461
lwrist -26.4861
lhand -13.8674 -11.1524
lfingers 7.12502
lthumb 12.257 18.4685
rfemur -0.895504 24.7853 27.2809
rtibia 2.22948
rfoot -11.6199 -24.7353
rtoes 3.36247
lfemur 6.94971 -40.5184 -14.7333
ltibia -4.57923
lfoot -15.8965 48.9478
ltoes 7.94055
40
root -0.485205 17.5058 7.66459 7.09157 0.722539 -8.36933
lowerback 2.74179 -0.441652 5.3591
upperback -8.40386 0.0174206 2.0053
thorax -10.5149 -0.332679 -0.848314
lowerneck -2.37429 -12.9855 -12.8421
upperneck 17.6597 -19.3611 12.8341
head 8.38339 -9.28694 4.40695
rclavicle 6.31141e-015 -2.78299e-014
rhumerus -43.6146 -11.2482 -80.8349
rradius 27.4076
rwrist 24.9894
rhand -6.8166 -34.6083
rfingers 7.12502
rthumb 19.0472 -63.6957
lclavicle 6.31141e-015 -2.78299e-014
lhumerus -55.2272 41.4299 51.0562
lradius 22.4075
lwrist -29.1742
lhand -14.1013 -11.852
lfingers 7.12502
lthumb 12.0314 17.7822
rfemur -0.916672 24.7479 27.3223
rtibia 2.24066
rfoot -11.629 -24.6876
rtoes 3.29391
lfemur 6.89059 -40.2637 -14.5915
ltibia -4.65242
lfoot -15.5327 48.7527
ltoes 7.50256
41
root -0.486106 17.5066 7.66446 7.12504 0.714077 -8.35837
lowerback 2.76204 -0.416959 5.35095
upperback -8.4322 0.0513514 1.98594
thorax -10.5571 -0.317671 -0.86784
lowerneck -2.36731 -12.9869 -12.8317
upperneck 17.6035 -19.3665 12.8792
head 8.36776 -9.28721 4.4204
rclavicle -6.60959e-015 1.31198e-014
rhumerus -43.6955 -11.3964 -80.7417
rradius 27.3269
rwrist 25.3177
rhand -6.90653 -34.4241
rfingers 7.12502
rthumb 18.9607 -63.52
lclavicle -6.60959e-015 1.31198e-014
lhumerus -55.0931 41.2808 51.22
lradius 22.3661
lwrist -29.1691
lhand -14.3498 -11.7754
lfingers 7.12502
lthumb 11.7918 17.8726
rfemur -0.953394 24.6739 27.2895
rtibia 2.21878
rfoot -11.5995 -24.6106
rtoes 3.17269
lfemur 6.83156 -40.1754 -14.5493
ltibia -4.67573
lfoot -15.3987 48.7031
ltoes 7.27201
42
root -0.487147 17.5072 7.66432 7.15361 0.703513 -8.32183
lowerback 2.79663 -0.416635 5.30863
upperback -8.45281 0.0516182 1.9833
thorax -10.6007 -0.315296 -0.846488
lowerneck -2.47421 -12.9752 -12.8633
upperneck 17.6317 -19.351 12.9279
head 8.40263 -9.27242 4.43509
rclavicle -2.23633e-015 -2.82274e-014
rhumerus -43.6976 -11.3707 -80.748
rradius 27.1934
rwrist 25.4965
rhand -7.144 -34.401
rfingers 7.12502
rthumb 18.7323 -63.5191
lclavicle -2.23633e-015 -2.82274e-014
lhumerus -53.8675 39.2303 53.7366
lradius 23.2748
lwrist -26.5383
lhand -14.4041 -10.9242
lfingers 7.12502
lthumb 11.7395 18.7269
rfemur -0.962507 24.6903 27.2343
rtibia 2.16119
rfoot -11.6183 -24.592
rtoes 3.39359
lfemur 6.80185 -40.2146 -14.5773
ltibia -4.66653
lfoot -15.4672 48.7521
ltoes 7.27978
43
root -0.48857 17.5076 7.66468 7.17279 0.705932 -8.34074
lowerback 2.82564 -0.425568 5.31626
upperback -8.46617 0.0443872 1.9993
thorax -10.6341 -0.319444 -0.832161
lowerneck -2.58186 -12.9718 -12.8718
upperneck 17.6377 -19.3373 12.9366
head 8.42377 -9.26029 4.43329
rclavicle -1.43125e-014 4.37326e-014
rhumerus -43.6397 -11.301 -80.7902
rradius 27.0307
rwrist 25.5946
rhand -7.35555 -34.4158
rfingers 7.12502
rthumb 18.5288 -63.5534
lclavicle -1.43125e-014 4.37326e-014
lhumerus -53.7034 39.0289 54.0125
lradius 23.3026
lwrist -26.3972
lhand -14.3318 -11.0238
lfingers 7.12502
lthumb 11.8091 18.6233
rfemur -0.951627 24.7738 27.2601
rtibia 2.11459
rfoot -11.6319 -24.6712
rtoes 3.54368
lfemur 6.79271 -40.3144 -14.5617
ltibia -4.64438
lfoot -15.5392 48.8383
ltoes 7.37348
44
root -0.490339 17.5078 7.66608 7.1743 0.689764 -8.35995
lowerback 2.85053 -0.429543 5.31093
upperback -8.47647 0.0420158 2.01206
thorax -10.661 -0.320156 -0.814788
lowerneck -2.61277 -12.9803 -12.8242
upperneck 17.5771 -19.3283 12.8763
head 8.3962 -9.25718 4.4064
rclavicle -2.03754e-015 2.70347e-014
rhumerus -43.5832 -11.3234 -80.7889
rradius 26.9069
rwrist 25.6837
rhand -7.45892 -34.3872
rfingers 7.12502
rthumb 18.4294 -63.5342
lclavicle -2.03754e-015 2.70347e-014
lhumerus -54.5438 40.6677 52.0968
lradius 22.4314
lwrist -28.7207
lhand -14.4046 -11.9483
lfingers 7.12502
lthumb 11.739 17.7028
rfemur -0.932266 24.8402 27.2939
rtibia 2.09994
rfoot -11.6533 -24.7355
rtoes 3.46333
lfemur 6.83609 -40.4762 -14.5934
ltibia -4.61013
lfoot -15.7478 48.9819
ltoes 7.72409
45
root -0.491847 17.5083 7.66718 7.16045 0.667414 -8.32947
lowerback 2.88444 -0.438148 5.24629
upperback -8.4808 0.0285615 2.02237
thorax -10.6861 -0.32131 -0.765762
lowerneck -2.60062 -12.9758 -12.7882
upperneck 17.4779 -19.3044 12.8415
head 8.34983 -9.2489 4.39518
rclavicle -4.12478e-015 2.38542e-015
rhumerus -43.5308 -11.4174 -80.7261
rradius 26.849
rwrist 25.8096
rhand -7.42612 -34.33
rfingers 7.12502
rthumb 18.461 -63.474
lclavicle -4.12478e-015 2.38542e-015
lhumerus -54.3833 40.4773 52.405
lradius 22.5458
lwrist -28.564
lhand -14.5145 -11.7864
lfingers 7.12502
lthumb 11.633 17.8706
rfemur -0.916241 24.8347 27.2671
rtibia 2.10205
rfoot -11.6599 -24.7164
rtoes 3.47064
lfemur 6.93326 -40.6919 -14.7232
ltibia -4.59831
lfoot -16.002 49.1838
ltoes 7.91003
